<svg width="103" height="23" viewBox="0 0 103 23" fill="none" xmlns="http://www.w3.org/2000/svg">
<path d="M20.1846 11.1455C20.1846 16.2055 16.1048 20.291 11.0923 20.291C6.07978 20.291 2 16.2055 2 11.1455C2 6.08555 6.07978 2 11.0923 2C16.1048 2 20.1846 6.08555 20.1846 11.1455Z" stroke="white" stroke-width="4"/>
<path d="M60.5923 11.1455C60.5923 16.2055 56.5125 20.291 51.5 20.291C46.4874 20.291 42.4077 16.2055 42.4077 11.1455C42.4077 6.08555 46.4874 2 51.5 2C56.5125 2 60.5923 6.08555 60.5923 11.1455Z" stroke="white" stroke-width="4"/>
<path d="M101 11.1455C101 16.2055 96.9202 20.291 91.9077 20.291C86.8951 20.291 82.8154 16.2055 82.8154 11.1455C82.8154 6.08555 86.8951 2 91.9077 2C96.9202 2 101 6.08555 101 11.1455Z" stroke="white" stroke-width="4"/>
</svg>
